<?xml version="1.0" encoding="us-ascii" standalone="no"?><svg xmlns="http://www.w3.org/2000/svg" xmlns:xlink="http://www.w3.org/1999/xlink" contentStyleType="text/css" height="1285px" preserveAspectRatio="none" style="width:617px;height:1285px;background:#FFFFFF;" version="1.1" viewBox="0 0 617 1285" width="617px" zoomAndPan="magnify"><defs/><g><text fill="#000000" font-family="Arial" font-size="14" font-weight="bold" lengthAdjust="spacing" textLength="135" x="234.25" y="24.9659">Diagrama de Clases</text><!--class User--><g id="elem_User"><rect codeLine="10" fill="#F1F1F1" height="116.2717" id="User" rx="2.5" ry="2.5" style="stroke:#181818;stroke-width:0.5;" width="86" x="132" y="47.0679"/><ellipse cx="157.35" cy="63.0679" fill="#ADD1B2" rx="11" ry="11" style="stroke:#181818;stroke-width:1.0;"/><path d="M153.7094,69.5679 L153.7094,57.4273 L161.3656,57.4273 L161.3656,59.5523 L156.0844,59.5523 L156.0844,62.2085 L161.1,62.2085 L161.1,64.3335 L156.0844,64.3335 L156.0844,67.4429 L161.3656,67.4429 L161.3656,69.5679 L153.7094,69.5679 Z " fill="#000000"/><text fill="#000000" font-family="Arial" font-size="14" lengthAdjust="spacing" textLength="31" x="173.65" y="68.4999">User</text><line style="stroke:#181818;stroke-width:0.5;" x1="133" x2="217" y1="79.0679" y2="79.0679"/><text fill="#000000" font-family="Arial" font-size="14" lengthAdjust="spacing" textLength="69" x="138" y="98.0339">Username</text><text fill="#000000" font-family="Arial" font-size="14" lengthAdjust="spacing" textLength="64" x="138" y="117.1018">Password</text><text fill="#000000" font-family="Arial" font-size="14" lengthAdjust="spacing" textLength="74" x="138" y="136.1697">UserProfile</text><text fill="#000000" font-family="Arial" font-size="14" lengthAdjust="spacing" textLength="29" x="138" y="155.2376">Role</text></g><!--class Company--><g id="elem_Company"><rect codeLine="18" fill="#F1F1F1" height="97.2038" id="Company" rx="2.5" ry="2.5" style="stroke:#181818;stroke-width:0.5;" width="143" x="103.5" y="614.0279"/><ellipse cx="140.1" cy="630.0279" fill="#ADD1B2" rx="11" ry="11" style="stroke:#181818;stroke-width:1.0;"/><path d="M136.4594,636.5279 L136.4594,624.3873 L144.1156,624.3873 L144.1156,626.5123 L138.8344,626.5123 L138.8344,629.1685 L143.85,629.1685 L143.85,631.2935 L138.8344,631.2935 L138.8344,634.4029 L144.1156,634.4029 L144.1156,636.5279 L136.4594,636.5279 Z " fill="#000000"/><text fill="#000000" font-family="Arial" font-size="14" lengthAdjust="spacing" textLength="63" x="158.9" y="635.4599">Company</text><line style="stroke:#181818;stroke-width:0.5;" x1="104.5" x2="245.5" y1="646.0279" y2="646.0279"/><text fill="#000000" font-family="Arial" font-size="14" lengthAdjust="spacing" textLength="40" x="109.5" y="664.9939">Name</text><text fill="#000000" font-family="Arial" font-size="14" lengthAdjust="spacing" textLength="131" x="109.5" y="684.0618">UserAdministrators</text><text fill="#000000" font-family="Arial" font-size="14" lengthAdjust="spacing" textLength="106" x="109.5" y="703.1297">CompanyProfile</text></g><!--class CompanyProfile--><g id="elem_CompanyProfile"><rect codeLine="24" fill="#F1F1F1" height="97.2038" id="CompanyProfile" rx="2.5" ry="2.5" style="stroke:#181818;stroke-width:0.5;" width="138" x="106" y="790.2979"/><ellipse cx="121" cy="806.2979" fill="#ADD1B2" rx="11" ry="11" style="stroke:#181818;stroke-width:1.0;"/><path d="M117.3594,812.7979 L117.3594,800.6573 L125.0156,800.6573 L125.0156,802.7823 L119.7344,802.7823 L119.7344,805.4385 L124.75,805.4385 L124.75,807.5635 L119.7344,807.5635 L119.7344,810.6729 L125.0156,810.6729 L125.0156,812.7979 L117.3594,812.7979 Z " fill="#000000"/><text fill="#000000" font-family="Arial" font-size="14" lengthAdjust="spacing" textLength="106" x="135" y="811.7299">CompanyProfile</text><line style="stroke:#181818;stroke-width:0.5;" x1="107" x2="243" y1="822.2979" y2="822.2979"/><text fill="#000000" font-family="Arial" font-size="14" lengthAdjust="spacing" textLength="54" x="112" y="841.2639">Website</text><text fill="#000000" font-family="Arial" font-size="14" lengthAdjust="spacing" textLength="115" x="112" y="860.3318">SocialMediaLinks</text><text fill="#000000" font-family="Arial" font-size="14" lengthAdjust="spacing" textLength="32" x="112" y="879.3997">Logo</text></g><!--class Profile--><g id="elem_Profile"><rect codeLine="30" fill="#F1F1F1" height="116.2717" id="Profile" rx="2.5" ry="2.5" style="stroke:#181818;stroke-width:0.5;" width="110" x="120" y="947.4979"/><ellipse cx="151.65" cy="963.4979" fill="#A9DCDF" rx="11" ry="11" style="stroke:#181818;stroke-width:1.0;"/><path d="M146.8219,969.2479 L150.1656,957.0604 L153.3063,957.0604 L156.6813,969.2479 L154.2125,969.2479 L153.4781,966.2323 L149.9625,966.2323 L149.2125,969.2479 L146.8219,969.2479 Z M151.2281,961.201 L150.4781,964.201 L152.9938,964.201 L152.275,961.201 Q152.1344,960.6229 152.0094,960.076 Q151.8844,959.5135 151.7438,958.9354 Q151.6344,959.5135 151.4938,960.076 Q151.3531,960.6229 151.2281,961.201 Z " fill="#000000"/><text fill="#000000" font-family="Arial" font-size="14" font-style="italic" lengthAdjust="spacing" textLength="41" x="169.35" y="968.9299">Profile</text><line style="stroke:#181818;stroke-width:0.5;" x1="121" x2="229" y1="979.4979" y2="979.4979"/><text fill="#000000" font-family="Arial" font-size="14" lengthAdjust="spacing" textLength="37" x="126" y="998.4639">Email</text><text fill="#000000" font-family="Arial" font-size="14" lengthAdjust="spacing" textLength="55" x="126" y="1017.5318">Address</text><text fill="#000000" font-family="Arial" font-size="14" lengthAdjust="spacing" textLength="98" x="126" y="1036.5997">PhoneNumber</text><text fill="#000000" font-family="Arial" font-size="14" lengthAdjust="spacing" textLength="77" x="126" y="1055.6676">Description</text></g><!--class UserProfile--><g id="elem_UserProfile"><rect codeLine="37" fill="#F1F1F1" height="97.2038" id="UserProfile" rx="2.5" ry="2.5" style="stroke:#181818;stroke-width:0.5;" width="106" x="7" y="232.8779"/><ellipse cx="22" cy="248.8779" fill="#ADD1B2" rx="11" ry="11" style="stroke:#181818;stroke-width:1.0;"/><path d="M18.3594,255.3779 L18.3594,243.2373 L26.0156,243.2373 L26.0156,245.3623 L20.7344,245.3623 L20.7344,248.0185 L25.75,248.0185 L25.75,250.1435 L20.7344,250.1435 L20.7344,253.2529 L26.0156,253.2529 L26.0156,255.3779 L18.3594,255.3779 Z " fill="#000000"/><text fill="#000000" font-family="Arial" font-size="14" lengthAdjust="spacing" textLength="74" x="36" y="254.3099">UserProfile</text><line style="stroke:#181818;stroke-width:0.5;" x1="8" x2="112" y1="264.8779" y2="264.8779"/><text fill="#000000" font-family="Arial" font-size="14" lengthAdjust="spacing" textLength="40" x="13" y="283.8439">Name</text><text fill="#000000" font-family="Arial" font-size="14" lengthAdjust="spacing" textLength="68" x="13" y="302.9118">Surnames</text><text fill="#000000" font-family="Arial" font-size="14" lengthAdjust="spacing" textLength="63" x="13" y="321.9797">Birthdate</text></g><!--class Address--><g id="elem_Address"><rect codeLine="43" fill="#F1F1F1" height="154.4075" id="Address" rx="2.5" ry="2.5" style="stroke:#181818;stroke-width:0.5;" width="87" x="193.5" y="1123.7679"/><ellipse cx="208.5" cy="1139.7679" fill="#ADD1B2" rx="11" ry="11" style="stroke:#181818;stroke-width:1.0;"/><path d="M204.8594,1146.2679 L204.8594,1134.1273 L212.5156,1134.1273 L212.5156,1136.2523 L207.2344,1136.2523 L207.2344,1138.9085 L212.25,1138.9085 L212.25,1141.0335 L207.2344,1141.0335 L207.2344,1144.1429 L212.5156,1144.1429 L212.5156,1146.2679 L204.8594,1146.2679 Z " fill="#000000"/><text fill="#000000" font-family="Arial" font-size="14" lengthAdjust="spacing" textLength="55" x="222.5" y="1145.1999">Address</text><line style="stroke:#181818;stroke-width:0.5;" x1="194.5" x2="279.5" y1="1155.7679" y2="1155.7679"/><text fill="#000000" font-family="Arial" font-size="14" lengthAdjust="spacing" textLength="40" x="199.5" y="1174.7339">Street</text><text fill="#000000" font-family="Arial" font-size="14" lengthAdjust="spacing" textLength="56" x="199.5" y="1193.8018">Number</text><text fill="#000000" font-family="Arial" font-size="14" lengthAdjust="spacing" textLength="33" x="199.5" y="1212.8697">Floor</text><text fill="#000000" font-family="Arial" font-size="14" lengthAdjust="spacing" textLength="74" x="199.5" y="1231.9376">PostalCode</text><text fill="#000000" font-family="Arial" font-size="14" lengthAdjust="spacing" textLength="25" x="199.5" y="1251.0055">City</text><text fill="#000000" font-family="Arial" font-size="14" lengthAdjust="spacing" textLength="53" x="199.5" y="1270.0734">Country</text></g><!--class Role--><g id="elem_Role"><rect codeLine="52" fill="#F1F1F1" height="78.1358" id="Role" rx="2.5" ry="2.5" style="stroke:#181818;stroke-width:0.5;" width="93" x="252.5" y="66.1379"/><ellipse cx="281.9" cy="82.1379" fill="#ADD1B2" rx="11" ry="11" style="stroke:#181818;stroke-width:1.0;"/><path d="M278.2594,88.6379 L278.2594,76.4973 L285.9156,76.4973 L285.9156,78.6223 L280.6344,78.6223 L280.6344,81.2785 L285.65,81.2785 L285.65,83.4035 L280.6344,83.4035 L280.6344,86.5129 L285.9156,86.5129 L285.9156,88.6379 L278.2594,88.6379 Z " fill="#000000"/><text fill="#000000" font-family="Arial" font-size="14" lengthAdjust="spacing" textLength="29" x="299.1" y="87.5699">Role</text><line style="stroke:#181818;stroke-width:0.5;" x1="253.5" x2="344.5" y1="98.1379" y2="98.1379"/><text fill="#000000" font-family="Arial" font-size="14" lengthAdjust="spacing" textLength="40" x="258.5" y="117.1039">Name</text><text fill="#000000" font-family="Arial" font-size="14" lengthAdjust="spacing" textLength="81" x="258.5" y="136.1718">Permissions</text></g><!--class Permission--><g id="elem_Permission"><rect codeLine="57" fill="#F1F1F1" height="78.1358" id="Permission" rx="2.5" ry="2.5" style="stroke:#181818;stroke-width:0.5;" width="106" x="381" y="66.1379"/><ellipse cx="396" cy="82.1379" fill="#ADD1B2" rx="11" ry="11" style="stroke:#181818;stroke-width:1.0;"/><path d="M392.3594,88.6379 L392.3594,76.4973 L400.0156,76.4973 L400.0156,78.6223 L394.7344,78.6223 L394.7344,81.2785 L399.75,81.2785 L399.75,83.4035 L394.7344,83.4035 L394.7344,86.5129 L400.0156,86.5129 L400.0156,88.6379 L392.3594,88.6379 Z " fill="#000000"/><text fill="#000000" font-family="Arial" font-size="14" lengthAdjust="spacing" textLength="74" x="410" y="87.5699">Permission</text><line style="stroke:#181818;stroke-width:0.5;" x1="382" x2="486" y1="98.1379" y2="98.1379"/><text fill="#000000" font-family="Arial" font-size="14" lengthAdjust="spacing" textLength="40" x="387" y="117.1039">Name</text><text fill="#000000" font-family="Arial" font-size="14" lengthAdjust="spacing" textLength="79" x="387" y="136.1718">ModulesIds</text></g><!--class Module--><g id="elem_Module"><rect codeLine="62" fill="#F1F1F1" height="78.1358" id="Module" rx="2.5" ry="2.5" style="stroke:#181818;stroke-width:0.5;" width="89" x="521.5" y="66.1379"/><ellipse cx="539.2" cy="82.1379" fill="#ADD1B2" rx="11" ry="11" style="stroke:#181818;stroke-width:1.0;"/><path d="M535.5594,88.6379 L535.5594,76.4973 L543.2156,76.4973 L543.2156,78.6223 L537.9344,78.6223 L537.9344,81.2785 L542.95,81.2785 L542.95,83.4035 L537.9344,83.4035 L537.9344,86.5129 L543.2156,86.5129 L543.2156,88.6379 L535.5594,88.6379 Z " fill="#000000"/><text fill="#000000" font-family="Arial" font-size="14" lengthAdjust="spacing" textLength="51" x="553.8" y="87.5699">Module</text><line style="stroke:#181818;stroke-width:0.5;" x1="522.5" x2="609.5" y1="98.1379" y2="98.1379"/><text fill="#000000" font-family="Arial" font-size="14" lengthAdjust="spacing" textLength="40" x="527.5" y="117.1039">Name</text><text fill="#000000" font-family="Arial" font-size="14" lengthAdjust="spacing" textLength="77" x="527.5" y="136.1718">Description</text></g><!--class InternShip--><g id="elem_InternShip"><rect codeLine="67" fill="#F1F1F1" height="135.3396" id="InternShip" rx="2.5" ry="2.5" style="stroke:#181818;stroke-width:0.5;" width="130" x="231" y="399.6179"/><ellipse cx="257.7" cy="415.6179" fill="#ADD1B2" rx="11" ry="11" style="stroke:#181818;stroke-width:1.0;"/><path d="M254.0594,422.1179 L254.0594,409.9773 L261.7156,409.9773 L261.7156,412.1023 L256.4344,412.1023 L256.4344,414.7585 L261.45,414.7585 L261.45,416.8835 L256.4344,416.8835 L256.4344,419.9929 L261.7156,419.9929 L261.7156,422.1179 L254.0594,422.1179 Z " fill="#000000"/><text fill="#000000" font-family="Arial" font-size="14" lengthAdjust="spacing" textLength="72" x="274.3" y="421.0499">InternShip</text><line style="stroke:#181818;stroke-width:0.5;" x1="232" x2="360" y1="431.6179" y2="431.6179"/><text fill="#000000" font-family="Arial" font-size="14" lengthAdjust="spacing" textLength="103" x="237" y="450.5839">CompanyName</text><text fill="#000000" font-family="Arial" font-size="14" lengthAdjust="spacing" textLength="77" x="237" y="469.6518">CompanyId</text><text fill="#000000" font-family="Arial" font-size="14" lengthAdjust="spacing" textLength="55" x="237" y="488.7197">Address</text><text fill="#000000" font-family="Arial" font-size="14" lengthAdjust="spacing" textLength="77" x="237" y="507.7876">Description</text><text fill="#000000" font-family="Arial" font-size="14" lengthAdjust="spacing" textLength="118" x="237" y="526.8555">InternShipDetails</text></g><!--class InterShipDetails--><g id="elem_InterShipDetails"><rect codeLine="75" fill="#F1F1F1" height="135.3396" id="InterShipDetails" rx="2.5" ry="2.5" style="stroke:#181818;stroke-width:0.5;" width="141" x="351.5" y="594.9579"/><ellipse cx="366.5" cy="610.9579" fill="#ADD1B2" rx="11" ry="11" style="stroke:#181818;stroke-width:1.0;"/><path d="M362.8594,617.4579 L362.8594,605.3173 L370.5156,605.3173 L370.5156,607.4423 L365.2344,607.4423 L365.2344,610.0985 L370.25,610.0985 L370.25,612.2235 L365.2344,612.2235 L365.2344,615.3329 L370.5156,615.3329 L370.5156,617.4579 L362.8594,617.4579 Z " fill="#000000"/><text fill="#000000" font-family="Arial" font-size="14" lengthAdjust="spacing" textLength="109" x="380.5" y="616.3899">InterShipDetails</text><line style="stroke:#181818;stroke-width:0.5;" x1="352.5" x2="491.5" y1="626.9579" y2="626.9579"/><text fill="#000000" font-family="Arial" font-size="14" lengthAdjust="spacing" textLength="96" x="357.5" y="645.9239">WorkingHours</text><text fill="#000000" font-family="Arial" font-size="14" lengthAdjust="spacing" textLength="95" x="357.5" y="664.9918">Requirements</text><text fill="#000000" font-family="Arial" font-size="14" lengthAdjust="spacing" textLength="41" x="357.5" y="684.0597">Salary</text><text fill="#000000" font-family="Arial" font-size="14" lengthAdjust="spacing" textLength="63" x="357.5" y="703.1276">StartDate</text><text fill="#000000" font-family="Arial" font-size="14" lengthAdjust="spacing" textLength="57" x="357.5" y="722.1955">EndDate</text></g><!--class Application--><g id="elem_Application"><rect codeLine="83" fill="#F1F1F1" height="116.2717" id="Application" rx="2.5" ry="2.5" style="stroke:#181818;stroke-width:0.5;" width="119" x="232.5" y="223.3479"/><ellipse cx="252.45" cy="239.3479" fill="#ADD1B2" rx="11" ry="11" style="stroke:#181818;stroke-width:1.0;"/><path d="M248.8094,245.8479 L248.8094,233.7073 L256.4656,233.7073 L256.4656,235.8323 L251.1844,235.8323 L251.1844,238.4885 L256.2,238.4885 L256.2,240.6135 L251.1844,240.6135 L251.1844,243.7229 L256.4656,243.7229 L256.4656,245.8479 L248.8094,245.8479 Z " fill="#000000"/><text fill="#000000" font-family="Arial" font-size="14" lengthAdjust="spacing" textLength="76" x="267.55" y="244.7799">Application</text><line style="stroke:#181818;stroke-width:0.5;" x1="233.5" x2="350.5" y1="255.3479" y2="255.3479"/><text fill="#000000" font-family="Arial" font-size="14" lengthAdjust="spacing" textLength="86" x="238.5" y="274.3139">InternShipId</text><text fill="#000000" font-family="Arial" font-size="14" lengthAdjust="spacing" textLength="45" x="238.5" y="293.3818">UserId</text><text fill="#000000" font-family="Arial" font-size="14" lengthAdjust="spacing" textLength="42" x="238.5" y="312.4497">Status</text><text fill="#000000" font-family="Arial" font-size="14" lengthAdjust="spacing" textLength="107" x="238.5" y="331.5176">ApplicationDate</text></g><!--reverse link User to Role--><g id="link_User_Role"><path codeLine="90" d="M230.11,105.2079 C241.48,105.2079 240.86,105.2079 252.24,105.2079 " fill="none" id="User-backto-Role" style="stroke:#181818;stroke-width:1.0;"/><polygon fill="#181818" points="218.11,105.2079,224.11,109.2079,230.11,105.2079,224.11,101.2079,218.11,105.2079" style="stroke:#181818;stroke-width:1.0;"/></g><!--reverse link User to UserProfile--><g id="link_User_UserProfile"><path codeLine="91" d="M130.4193,173.7728 C115.6993,196.0728 105.65,211.3079 91.6,232.5979 " fill="none" id="User-backto-UserProfile" style="stroke:#181818;stroke-width:1.0;"/><polygon fill="#181818" points="137.03,163.7579,130.3863,166.5618,130.4193,173.7728,137.0629,170.9689,137.03,163.7579" style="stroke:#181818;stroke-width:1.0;"/></g><!--reverse link Role to Permission--><g id="link_Role_Permission"><path codeLine="92" d="M357.93,105.2079 C369.52,105.2079 369.1,105.2079 380.68,105.2079 " fill="none" id="Role-backto-Permission" style="stroke:#181818;stroke-width:1.0;"/><polygon fill="none" points="345.93,105.2079,351.93,109.2079,357.93,105.2079,351.93,101.2079,345.93,105.2079" style="stroke:#181818;stroke-width:1.0;"/></g><!--reverse link Permission to Module--><g id="link_Permission_Module"><path codeLine="93" d="M499.37,105.2079 C510.63,105.2079 509.89,105.2079 521.15,105.2079 " fill="none" id="Permission-backto-Module" style="stroke:#181818;stroke-width:1.0;"/><polygon fill="none" points="487.37,105.2079,493.37,109.2079,499.37,105.2079,493.37,101.2079,487.37,105.2079" style="stroke:#181818;stroke-width:1.0;"/></g><!--reverse link Company to User--><g id="link_Company_User"><path codeLine="95" d="M175,601.8579 C175,500.0079 175,273.8479 175,163.8179 " fill="none" id="Company-backto-User" style="stroke:#181818;stroke-width:1.0;"/><polygon fill="none" points="175,613.8579,179,607.8579,175,601.8579,171,607.8579,175,613.8579" style="stroke:#181818;stroke-width:1.0;"/></g><!--reverse link Company to CompanyProfile--><g id="link_Company_CompanyProfile"><path codeLine="96" d="M175,723.7079 C175,748.0879 175,765.6079 175,789.9679 " fill="none" id="Company-backto-CompanyProfile" style="stroke:#181818;stroke-width:1.0;"/><polygon fill="#181818" points="175,711.7079,171,717.7079,175,723.7079,179,717.7079,175,711.7079" style="stroke:#181818;stroke-width:1.0;"/></g><!--link CompanyProfile to Profile--><g id="link_CompanyProfile_Profile"><path codeLine="98" d="M175,887.9879 C175,906.5079 175,909.8379 175,929.1579 " fill="none" id="CompanyProfile-to-Profile" style="stroke:#181818;stroke-width:1.0;"/><polygon fill="none" points="175,947.1579,181,929.1579,169,929.1579,175,947.1579" style="stroke:#181818;stroke-width:1.0;"/></g><!--link UserProfile to Profile--><g id="link_UserProfile_Profile"><path codeLine="99" d="M53.04,330.1879 C39.73,434.7879 17.81,690.6579 88,887.4979 C95.57,908.7379 97.5387,914.9966 111.0487,932.8766 " fill="none" id="UserProfile-to-Profile" style="stroke:#181818;stroke-width:1.0;"/><polygon fill="none" points="121.9,947.2379,115.8358,929.2595,106.2615,936.4937,121.9,947.2379" style="stroke:#181818;stroke-width:1.0;"/></g><!--reverse link Profile to Address--><g id="link_Profile_Address"><path codeLine="100" d="M197.0991,1075.5432 C203.0691,1094.1332 206.1,1103.6279 212.44,1123.3679 " fill="none" id="Profile-backto-Address" style="stroke:#181818;stroke-width:1.0;"/><polygon fill="#181818" points="193.43,1064.1179,191.4561,1071.0536,197.0991,1075.5432,199.073,1068.6075,193.43,1064.1179" style="stroke:#181818;stroke-width:1.0;"/></g><!--reverse link InternShip to InterShipDetails--><g id="link_InternShip_InterShipDetails"><path codeLine="102" d="M346.2696,545.4229 C358.7696,564.6129 365.86,575.4779 378.36,594.6679 " fill="none" id="InternShip-backto-InterShipDetails" style="stroke:#181818;stroke-width:1.0;"/><polygon fill="#181818" points="339.72,535.3679,339.6432,542.5786,346.2696,545.4229,346.3465,538.2122,339.72,535.3679" style="stroke:#181818;stroke-width:1.0;"/></g><!--reverse link InternShip to Company--><g id="link_InternShip_Company"><path codeLine="103" d="M247.6536,545.5399 C231.5436,571.2799 219.86,589.9379 205.09,613.5479 " fill="none" id="InternShip-backto-Company" style="stroke:#181818;stroke-width:1.0;"/><polygon fill="#181818" points="254.02,535.3679,247.4461,538.3318,247.6536,545.5399,254.2275,542.576,254.02,535.3679" style="stroke:#181818;stroke-width:1.0;"/></g><!--reverse link InternShip to Address--><g id="link_InternShip_Address"><path codeLine="104" d="M289.6373,547.2292 C280.7673,657.4392 263.47,871.9979 248,1063.7679 C246.44,1083.1579 244.74,1104.1079 243.17,1123.6179 " fill="none" id="InternShip-backto-Address" style="stroke:#181818;stroke-width:1.0;"/><polygon fill="#181818" points="290.6,535.2679,286.1316,540.9277,289.6373,547.2292,294.1058,541.5695,290.6,535.2679" style="stroke:#181818;stroke-width:1.0;"/></g><!--reverse link Application to InternShip--><g id="link_Application_InternShip"><path codeLine="106" d="M293.5108,351.8751 C293.9208,370.7351 294.12,379.8579 294.54,399.3579 " fill="none" id="Application-backto-InternShip" style="stroke:#181818;stroke-width:1.0;"/><polygon fill="#181818" points="293.25,339.8779,289.3813,345.9634,293.5108,351.8751,297.3795,345.7896,293.25,339.8779" style="stroke:#181818;stroke-width:1.0;"/></g><!--link User to Application--><g id="link_User_Application"><path codeLine="107" d="M213.63,163.7579 C226.41,182.7879 233.9398,194.0059 246.7198,213.0359 " fill="none" id="User-to-Application" style="stroke:#181818;stroke-width:1.0;"/><polygon fill="#181818" points="253.41,222.9979,253.3856,215.7869,246.7198,213.0359,246.7442,220.247,253.41,222.9979" style="stroke:#181818;stroke-width:1.0;"/></g><!--SRC=[RLFDRjim3BxhARJJW01-XG5Pqc81sY1eCEpCH6miH1OzYKOGP7ltIPPig-fq8lcH7t_5cWtAhOQBWmwaGhanuD4ByVKBjzYXX4vVGFYhjZq47tc2y_NYQB1gGuQSlBMQiS0LliDW-9aixo74hvq68qIh0pTsFTzbXzq9NKY1bdNGVtfqKZo432_ADeIDoW6ylv5JCt9mzAvD0jye27zdaWrrFTXxOjbF335ehJfjjMS7J25hD6VdYUuJImOIsIyy-TXYb8zq3jsyejBmekqriRtGXI87d6AICyiFuKyTQ3DAQwKS-XHpQCdYVeY36FKj-hFJFMkoHJb5prLZns4SKoBxhXst2hZi92TBOKTsY9mObfpFXYX91_8CPaCgaMy2GPxJODdT2zeuzQgK0xfEUnygzuNZOgtSNqaD1lrEbTx9M7d-VoOxo-54Zgtk7-KkvwYixzIdcPTyKL-OjiXXIRxEKa3v5CY5Ex_ye24VqXl-7hGBtyHoCXp1WBldeOFZBUJBUR9gMssexuq-Gon7Fgg2TilDPp6myP1o584JvVY5Latw59DI_fW8I6gAjOX5Z43QW11vVC7azANbn39RLusYcstg3oG-wh9f_doRVe4eolW8JCPLqynx4iiCHdkzXnhFYMlpJ5SEUUOR_Ifew7EhGlm3]--></g></svg>