<svg xmlns="http://www.w3.org/2000/svg" xmlns:xlink="http://www.w3.org/1999/xlink" contentStyleType="text/css" data-diagram-type="CLASS" height="552px" preserveAspectRatio="none" style="width:516px;height:552px;background:#FFFFFF;" version="1.1" viewBox="0 0 516 552" width="516px" zoomAndPan="magnify"><title>Diagrama de Clases</title><defs/><g><text fill="#000000" font-family="Arial" font-size="14" font-weight="bold" lengthAdjust="spacing" textLength="156.2217" x="173.3013" y="22.9951">Diagrama de Clases</text><!--class User--><g id="elem_User"><rect codeLine="9" fill="#F1F1F1" height="88.8906" id="User" rx="2.5" ry="2.5" style="stroke:#181818;stroke-width:0.5;" width="83.6133" x="25.15" y="44.2969"/><ellipse cx="49.0164" cy="60.2969" fill="#ADD1B2" rx="11" ry="11" style="stroke:#181818;stroke-width:1;"/><path d="M53.1258,66.2969 L45.407,66.2969 L45.407,53.9063 L53.1258,53.9063 L53.1258,56.0625 L47.8602,56.0625 L47.8602,58.7344 L52.6258,58.7344 L52.6258,60.8906 L47.8602,60.8906 L47.8602,64.1406 L53.1258,64.1406 L53.1258,66.2969 Z " fill="#000000"/><text fill="#000000" font-family="Arial" font-size="14" lengthAdjust="spacing" textLength="31.9102" x="64.9867" y="65.1436">User</text><line style="stroke:#181818;stroke-width:0.5;" x1="26.15" x2="107.7633" y1="76.2969" y2="76.2969"/><text fill="#000000" font-family="Arial" font-size="14" lengthAdjust="spacing" textLength="71.6133" x="31.15" y="93.292">Username</text><text fill="#000000" font-family="Arial" font-size="14" lengthAdjust="spacing" textLength="66.2676" x="31.15" y="109.5889">Password</text><text fill="#000000" font-family="Arial" font-size="14" lengthAdjust="spacing" textLength="38.0898" x="31.15" y="125.8857">Roles</text></g><!--class Role--><g id="elem_Role"><rect codeLine="16" fill="#F1F1F1" height="72.5938" id="Role" rx="2.5" ry="2.5" style="stroke:#181818;stroke-width:0.5;" width="95.5488" x="144.18" y="52.4469"/><ellipse cx="173.9188" cy="68.4469" fill="#ADD1B2" rx="11" ry="11" style="stroke:#181818;stroke-width:1;"/><path d="M178.0282,74.4469 L170.3094,74.4469 L170.3094,62.0562 L178.0282,62.0562 L178.0282,64.2125 L172.7626,64.2125 L172.7626,66.8844 L177.5282,66.8844 L177.5282,69.0406 L172.7626,69.0406 L172.7626,72.2906 L178.0282,72.2906 L178.0282,74.4469 Z " fill="#000000"/><text fill="#000000" font-family="Arial" font-size="14" lengthAdjust="spacing" textLength="30.7959" x="191.1941" y="73.2936">Role</text><line style="stroke:#181818;stroke-width:0.5;" x1="145.18" x2="238.7288" y1="84.4469" y2="84.4469"/><text fill="#000000" font-family="Arial" font-size="14" lengthAdjust="spacing" textLength="41.3027" x="150.18" y="101.442">Name</text><text fill="#000000" font-family="Arial" font-size="14" lengthAdjust="spacing" textLength="83.5488" x="150.18" y="117.7389">Permissions</text></g><!--class Permission--><g id="elem_Permission"><rect codeLine="21" fill="#F1F1F1" height="72.5938" id="Permission" rx="2.5" ry="2.5" style="stroke:#181818;stroke-width:0.5;" width="108.2549" x="274.83" y="52.4469"/><ellipse cx="289.83" cy="68.4469" fill="#ADD1B2" rx="11" ry="11" style="stroke:#181818;stroke-width:1;"/><path d="M293.9394,74.4469 L286.2206,74.4469 L286.2206,62.0562 L293.9394,62.0562 L293.9394,64.2125 L288.6738,64.2125 L288.6738,66.8844 L293.4394,66.8844 L293.4394,69.0406 L288.6738,69.0406 L288.6738,72.2906 L293.9394,72.2906 L293.9394,74.4469 Z " fill="#000000"/><text fill="#000000" font-family="Arial" font-size="14" lengthAdjust="spacing" textLength="76.2549" x="303.83" y="73.2936">Permission</text><line style="stroke:#181818;stroke-width:0.5;" x1="275.83" x2="382.0849" y1="84.4469" y2="84.4469"/><text fill="#000000" font-family="Arial" font-size="14" lengthAdjust="spacing" textLength="41.3027" x="280.83" y="101.442">Name</text><text fill="#000000" font-family="Arial" font-size="14" lengthAdjust="spacing" textLength="78.5107" x="280.83" y="117.7389">ModulesIds</text></g><!--class Module--><g id="elem_Module"><rect codeLine="26" fill="#F1F1F1" height="72.5938" id="Module" rx="2.5" ry="2.5" style="stroke:#181818;stroke-width:0.5;" width="91.7344" x="418.09" y="52.4469"/><ellipse cx="437.0622" cy="68.4469" fill="#ADD1B2" rx="11" ry="11" style="stroke:#181818;stroke-width:1;"/><path d="M441.1716,74.4469 L433.4528,74.4469 L433.4528,62.0562 L441.1716,62.0562 L441.1716,64.2125 L435.906,64.2125 L435.906,66.8844 L440.6716,66.8844 L440.6716,69.0406 L435.906,69.0406 L435.906,72.2906 L441.1716,72.2906 L441.1716,74.4469 Z " fill="#000000"/><text fill="#000000" font-family="Arial" font-size="14" lengthAdjust="spacing" textLength="50.9072" x="451.9449" y="73.2936">Module</text><line style="stroke:#181818;stroke-width:0.5;" x1="419.09" x2="508.8244" y1="84.4469" y2="84.4469"/><text fill="#000000" font-family="Arial" font-size="14" lengthAdjust="spacing" textLength="41.3027" x="424.09" y="101.442">Name</text><text fill="#000000" font-family="Arial" font-size="14" lengthAdjust="spacing" textLength="79.7344" x="424.09" y="117.7389">Description</text></g><!--class InternShip--><g id="elem_InternShip"><rect codeLine="31" fill="#F1F1F1" height="202.9688" id="InternShip" rx="2.5" ry="2.5" style="stroke:#181818;stroke-width:0.5;" width="119.9053" x="7" y="342.0769"/><ellipse cx="29.0361" cy="358.0769" fill="#ADD1B2" rx="11" ry="11" style="stroke:#181818;stroke-width:1;"/><path d="M33.1455,364.0769 L25.4267,364.0769 L25.4267,351.6863 L33.1455,351.6863 L33.1455,353.8425 L27.8798,353.8425 L27.8798,356.5144 L32.6455,356.5144 L32.6455,358.6706 L27.8798,358.6706 L27.8798,361.9206 L33.1455,361.9206 L33.1455,364.0769 Z " fill="#000000"/><text fill="#000000" font-family="Arial" font-size="14" lengthAdjust="spacing" textLength="72.2695" x="44.5997" y="362.9236">InternShip</text><line style="stroke:#181818;stroke-width:0.5;" x1="8" x2="125.9053" y1="374.0769" y2="374.0769"/><text fill="#000000" font-family="Arial" font-size="14" lengthAdjust="spacing" textLength="107.9053" x="13" y="391.072">CompanyName</text><text fill="#000000" font-family="Arial" font-size="14" lengthAdjust="spacing" textLength="43.5518" x="13" y="407.3689">userId</text><text fill="#000000" font-family="Arial" font-size="14" lengthAdjust="spacing" textLength="79.6182" x="13" y="423.6657">CompanyId</text><text fill="#000000" font-family="Arial" font-size="14" lengthAdjust="spacing" textLength="56.3076" x="13" y="439.9626">Address</text><text fill="#000000" font-family="Arial" font-size="14" lengthAdjust="spacing" textLength="79.7344" x="13" y="456.2595">Description</text><text fill="#000000" font-family="Arial" font-size="14" lengthAdjust="spacing" textLength="98.9365" x="13" y="472.5564">WorkingHours</text><text fill="#000000" font-family="Arial" font-size="14" lengthAdjust="spacing" textLength="98.2666" x="13" y="488.8532">Requirements</text><text fill="#000000" font-family="Arial" font-size="14" lengthAdjust="spacing" textLength="43.9756" x="13" y="505.1501">Salary</text><text fill="#000000" font-family="Arial" font-size="14" lengthAdjust="spacing" textLength="67.6621" x="13" y="521.447">StartDate</text><text fill="#000000" font-family="Arial" font-size="14" lengthAdjust="spacing" textLength="60.0674" x="13" y="537.7439">EndDate</text></g><!--class Application--><g id="elem_Application"><rect codeLine="44" fill="#F1F1F1" height="88.8906" id="Application" rx="2.5" ry="2.5" style="stroke:#181818;stroke-width:0.5;" width="110.2236" x="65.84" y="193.1869"/><ellipse cx="80.84" cy="209.1869" fill="#ADD1B2" rx="11" ry="11" style="stroke:#181818;stroke-width:1;"/><path d="M84.9494,215.1869 L77.2306,215.1869 L77.2306,202.7963 L84.9494,202.7963 L84.9494,204.9525 L79.6838,204.9525 L79.6838,207.6244 L84.4494,207.6244 L84.4494,209.7806 L79.6838,209.7806 L79.6838,213.0306 L84.9494,213.0306 L84.9494,215.1869 Z " fill="#000000"/><text fill="#000000" font-family="Arial" font-size="14" lengthAdjust="spacing" textLength="78.2236" x="94.84" y="214.0336">Application</text><line style="stroke:#181818;stroke-width:0.5;" x1="66.84" x2="175.0636" y1="225.1869" y2="225.1869"/><text fill="#000000" font-family="Arial" font-size="14" lengthAdjust="spacing" textLength="85.2852" x="71.84" y="242.182">InternShipId</text><text fill="#000000" font-family="Arial" font-size="14" lengthAdjust="spacing" textLength="44.9258" x="71.84" y="258.4789">UserId</text><text fill="#000000" font-family="Arial" font-size="14" lengthAdjust="spacing" textLength="44.6113" x="71.84" y="274.7757">Status</text></g><!--reverse link User to Role--><g id="link_User_Role"><path codeLine="50" d="M120.94,88.7469 C132.62,88.7469 132.29,88.7469 143.96,88.7469 " fill="none" id="User-backto-Role" style="stroke:#181818;stroke-width:1;"/><polygon fill="none" points="108.94,88.7469,114.94,92.7469,120.94,88.7469,114.94,84.7469,108.94,88.7469" style="stroke:#181818;stroke-width:1;"/></g><!--reverse link Role to Permission--><g id="link_Role_Permission"><path codeLine="51" d="M252.12,88.7469 C263.57,88.7469 263.02,88.7469 274.47,88.7469 " fill="none" id="Role-backto-Permission" style="stroke:#181818;stroke-width:1;"/><polygon fill="none" points="240.12,88.7469,246.12,92.7469,252.12,88.7469,246.12,84.7469,240.12,88.7469" style="stroke:#181818;stroke-width:1;"/></g><!--reverse link Permission to Module--><g id="link_Permission_Module"><path codeLine="52" d="M395.53,88.7469 C406.95,88.7469 406.36,88.7469 417.77,88.7469 " fill="none" id="Permission-backto-Module" style="stroke:#181818;stroke-width:1;"/><polygon fill="none" points="383.53,88.7469,389.53,92.7469,395.53,88.7469,389.53,84.7469,383.53,88.7469" style="stroke:#181818;stroke-width:1;"/></g><!--reverse link Application to InternShip--><g id="link_Application_InternShip"><path codeLine="54" d="M106.2982,293.977 C101.6482,311.537 99.15,320.9569 93.61,341.8969 " fill="none" id="Application-backto-InternShip" style="stroke:#181818;stroke-width:1;"/><polygon fill="#181818" points="109.37,282.3769,103.9674,287.153,106.2982,293.977,111.7008,289.2009,109.37,282.3769" style="stroke:#181818;stroke-width:1;"/></g><!--link User to Application--><g id="link_User_Application"><path codeLine="55" d="M83.01,133.4169 C89.91,152.1869 93.8182,162.8243 100.7282,181.6143 " fill="none" id="User-to-Application" style="stroke:#181818;stroke-width:1;"/><polygon fill="#181818" points="104.87,192.8769,106.5533,185.865,100.7282,181.6143,99.0449,188.6262,104.87,192.8769" style="stroke:#181818;stroke-width:1;"/></g><!--link User to InternShip--><g id="link_User_InternShip"><path codeLine="57" d="M57.09,133.5469 C53.44,151.8669 49.75,173.4569 47.95,193.1869 C43.5,242.0469 45.3828,284.4372 50.3228,329.8672 " fill="none" id="User-to-InternShip" style="stroke:#181818;stroke-width:1;"/><polygon fill="#181818" points="51.62,341.7969,54.948,335.3996,50.3228,329.8672,46.9948,336.2644,51.62,341.7969" style="stroke:#181818;stroke-width:1;"/></g><!--SRC=[PL7BQWCn3BpxAznJeR0V4PAMvj0G4aBFIgpkclXLMIQ4qd-lTXso9lN1QAJHQ2opPOTwPQ4dyA0DwgM3Z5cfvoSUqAC6RtjG-Mn30k7e8vpEFSKIp3AwIFeoMCQcRl0BYkEt67W3qhyW2qwfmOes-iHNxT4VaMG41hQ23nb9gn-bvOnnaBO9R27dIoGpWLrqOklttZNYshEvyv6ypTd6q1Bdx0Fz8veYcclJicloWRd2V2ARM3GQwZgmcDqFDbNwCle4uNhlAlAMjMbBDxGmXZ3dVz8Z_emag-pVOw5AsE5tiIG_4RWczk20hZLa85u1rtclmKpnx72HahCd6CLrzJXxldavp2P5ZSkqY-b7OZVjM8tN2EOzgZaS2tLbIhNJNhgkcVLGAgcRvYerKvhq7m00]--></g></svg>