<svg xmlns="http://www.w3.org/2000/svg" xmlns:xlink="http://www.w3.org/1999/xlink" contentStyleType="text/css" data-diagram-type="CLASS" height="1023px" preserveAspectRatio="none" style="width:985px;height:1023px;background:#FFFFFF;" version="1.1" viewBox="0 0 985 1023" width="985px" zoomAndPan="magnify"><defs/><g><!--cluster Backend Architecture--><g id="cluster_Backend Architecture"><path d="M8.5,6 L179.9336,6 A3.75,3.75 0 0 1 182.4336,8.5 L189.4336,28.2969 L975.5,28.2969 A2.5,2.5 0 0 1 978,30.7969 L978,1014.25 A2.5,2.5 0 0 1 975.5,1016.75 L8.5,1016.75 A2.5,2.5 0 0 1 6,1014.25 L6,8.5 A2.5,2.5 0 0 1 8.5,6 " fill="none" style="stroke:#000000;stroke-width:1.5;"/><line style="stroke:#000000;stroke-width:1.5;" x1="6" x2="189.4336" y1="28.2969" y2="28.2969"/><text fill="#000000" font-family="sans-serif" font-size="14" font-weight="bold" lengthAdjust="spacing" textLength="170.4336" x="10" y="20.9951">Backend Architecture</text></g><path d="M153.15,300.19 L240.8434,300.19 A3.75,3.75 0 0 1 243.3434,302.69 L250.3434,322.4869 L254.8434,322.4869 A2.5,2.5 0 0 1 257.3434,324.9869 L257.3434,350.2838 A2.5,2.5 0 0 1 254.8434,352.7838 L153.15,352.7838 A2.5,2.5 0 0 1 150.65,350.2838 L150.65,302.69 A2.5,2.5 0 0 1 153.15,300.19 " fill="#F1F1F1" style="stroke:#181818;stroke-width:0.5;"/><line style="stroke:#181818;stroke-width:0.5;" x1="150.65" x2="250.3434" y1="322.4869" y2="322.4869"/><text fill="#000000" font-family="sans-serif" font-size="14" font-weight="bold" lengthAdjust="spacing" textLength="86.6934" x="154.65" y="315.1851">Collections</text><path d="M415.8,429.78 L504.2043,429.78 A3.75,3.75 0 0 1 506.7043,432.28 L513.7043,452.0769 L518.2043,452.0769 A2.5,2.5 0 0 1 520.7043,454.5769 L520.7043,479.8738 A2.5,2.5 0 0 1 518.2043,482.3738 L415.8,482.3738 A2.5,2.5 0 0 1 413.3,479.8738 L413.3,432.28 A2.5,2.5 0 0 1 415.8,429.78 " fill="#F1F1F1" style="stroke:#181818;stroke-width:0.5;"/><line style="stroke:#181818;stroke-width:0.5;" x1="413.3" x2="513.7043" y1="452.0769" y2="452.0769"/><text fill="#000000" font-family="sans-serif" font-size="14" font-weight="bold" lengthAdjust="spacing" textLength="87.4043" x="417.3" y="444.7751">Controllers</text><path d="M158.25,948.16 L233.7549,948.16 A3.75,3.75 0 0 1 236.2549,950.66 L243.2549,970.4569 L247.7549,970.4569 A2.5,2.5 0 0 1 250.2549,972.9569 L250.2549,998.2538 A2.5,2.5 0 0 1 247.7549,1000.7538 L158.25,1000.7538 A2.5,2.5 0 0 1 155.75,998.2538 L155.75,950.66 A2.5,2.5 0 0 1 158.25,948.16 " fill="#F1F1F1" style="stroke:#181818;stroke-width:0.5;"/><line style="stroke:#181818;stroke-width:0.5;" x1="155.75" x2="243.2549" y1="970.4569" y2="970.4569"/><text fill="#000000" font-family="sans-serif" font-size="14" font-weight="bold" lengthAdjust="spacing" textLength="74.5049" x="159.75" y="963.1551">Database</text><path d="M563.41,300.19 L664.5907,300.19 A3.75,3.75 0 0 1 667.0907,302.69 L674.0907,322.4869 L678.5907,322.4869 A2.5,2.5 0 0 1 681.0907,324.9869 L681.0907,350.2838 A2.5,2.5 0 0 1 678.5907,352.7838 L563.41,352.7838 A2.5,2.5 0 0 1 560.91,350.2838 L560.91,302.69 A2.5,2.5 0 0 1 563.41,300.19 " fill="#F1F1F1" style="stroke:#181818;stroke-width:0.5;"/><line style="stroke:#181818;stroke-width:0.5;" x1="560.91" x2="674.0907" y1="322.4869" y2="322.4869"/><text fill="#000000" font-family="sans-serif" font-size="14" font-weight="bold" lengthAdjust="spacing" textLength="100.1807" x="564.91" y="315.1851">Middlewares</text><path d="M167.4,818.56 L224.5982,818.56 A3.75,3.75 0 0 1 227.0982,821.06 L234.0982,840.8569 L238.5982,840.8569 A2.5,2.5 0 0 1 241.0982,843.3569 L241.0982,868.6538 A2.5,2.5 0 0 1 238.5982,871.1538 L167.4,871.1538 A2.5,2.5 0 0 1 164.9,868.6538 L164.9,821.06 A2.5,2.5 0 0 1 167.4,818.56 " fill="#F1F1F1" style="stroke:#181818;stroke-width:0.5;"/><line style="stroke:#181818;stroke-width:0.5;" x1="164.9" x2="234.0982" y1="840.8569" y2="840.8569"/><text fill="#000000" font-family="sans-serif" font-size="14" font-weight="bold" lengthAdjust="spacing" textLength="56.1982" x="168.9" y="833.5551">Models</text><path d="M146.06,688.97 L245.9487,688.97 A3.75,3.75 0 0 1 248.4487,691.47 L255.4487,711.2669 L259.9487,711.2669 A2.5,2.5 0 0 1 262.4487,713.7669 L262.4487,739.0638 A2.5,2.5 0 0 1 259.9487,741.5638 L146.06,741.5638 A2.5,2.5 0 0 1 143.56,739.0638 L143.56,691.47 A2.5,2.5 0 0 1 146.06,688.97 " fill="#F1F1F1" style="stroke:#181818;stroke-width:0.5;"/><line style="stroke:#181818;stroke-width:0.5;" x1="143.56" x2="255.4487" y1="711.2669" y2="711.2669"/><text fill="#000000" font-family="sans-serif" font-size="14" font-weight="bold" lengthAdjust="spacing" textLength="98.8887" x="147.56" y="703.9651">Repositories</text><path d="M576.94,170.59 L651.0572,170.59 A3.75,3.75 0 0 1 653.5572,173.09 L660.5572,192.8869 L665.0572,192.8869 A2.5,2.5 0 0 1 667.5572,195.3869 L667.5572,220.6838 A2.5,2.5 0 0 1 665.0572,223.1838 L576.94,223.1838 A2.5,2.5 0 0 1 574.44,220.6838 L574.44,173.09 A2.5,2.5 0 0 1 576.94,170.59 " fill="#F1F1F1" style="stroke:#181818;stroke-width:0.5;"/><line style="stroke:#181818;stroke-width:0.5;" x1="574.44" x2="660.5572" y1="192.8869" y2="192.8869"/><text fill="#000000" font-family="sans-serif" font-size="14" font-weight="bold" lengthAdjust="spacing" textLength="73.1172" x="578.44" y="185.5851">Requests</text><path d="M319.89,559.37 L402.1146,559.37 A3.75,3.75 0 0 1 404.6146,561.87 L411.6146,581.6669 L416.1146,581.6669 A2.5,2.5 0 0 1 418.6146,584.1669 L418.6146,609.4638 A2.5,2.5 0 0 1 416.1146,611.9638 L319.89,611.9638 A2.5,2.5 0 0 1 317.39,609.4638 L317.39,561.87 A2.5,2.5 0 0 1 319.89,559.37 " fill="#F1F1F1" style="stroke:#181818;stroke-width:0.5;"/><line style="stroke:#181818;stroke-width:0.5;" x1="317.39" x2="411.6146" y1="581.6669" y2="581.6669"/><text fill="#000000" font-family="sans-serif" font-size="14" font-weight="bold" lengthAdjust="spacing" textLength="81.2246" x="321.39" y="574.3651">Resources</text><path d="M749.31,559.37 L834.686,559.37 A3.75,3.75 0 0 1 837.186,561.87 L844.186,581.6669 L848.686,581.6669 A2.5,2.5 0 0 1 851.186,584.1669 L851.186,609.4638 A2.5,2.5 0 0 1 848.686,611.9638 L749.31,611.9638 A2.5,2.5 0 0 1 746.81,609.4638 L746.81,561.87 A2.5,2.5 0 0 1 749.31,559.37 " fill="#F1F1F1" style="stroke:#181818;stroke-width:0.5;"/><line style="stroke:#181818;stroke-width:0.5;" x1="746.81" x2="844.186" y1="581.6669" y2="581.6669"/><text fill="#000000" font-family="sans-serif" font-size="14" font-weight="bold" lengthAdjust="spacing" textLength="84.376" x="750.81" y="574.3651">Responses</text><path d="M586.06,41 L641.9457,41 A3.75,3.75 0 0 1 644.4457,43.5 L651.4457,63.2969 L655.9457,63.2969 A2.5,2.5 0 0 1 658.4457,65.7969 L658.4457,91.0938 A2.5,2.5 0 0 1 655.9457,93.5938 L586.06,93.5938 A2.5,2.5 0 0 1 583.56,91.0938 L583.56,43.5 A2.5,2.5 0 0 1 586.06,41 " fill="#F1F1F1" style="stroke:#181818;stroke-width:0.5;"/><line style="stroke:#181818;stroke-width:0.5;" x1="583.56" x2="651.4457" y1="63.2969" y2="63.2969"/><text fill="#000000" font-family="sans-serif" font-size="14" font-weight="bold" lengthAdjust="spacing" textLength="54.8857" x="587.56" y="55.9951">Routes</text><!--link Routes to Requests--><g id="link_Routes_Requests"><path codeLine="37" d="M621,93.81 C621,116.06 621,142.18 621,164.42 " fill="none" id="Routes-to-Requests" style="stroke:#181818;stroke-width:1;"/><polygon fill="#181818" points="621,170.42,625,161.42,621,165.42,617,161.42,621,170.42" style="stroke:#181818;stroke-width:1;"/><text fill="#000000" font-family="sans-serif" font-size="13" lengthAdjust="spacing" textLength="147.418" x="622" y="136.6569">Validates request data</text></g><!--link Requests to Middlewares--><g id="link_Requests_Middlewares"><path codeLine="38" d="M621,223.4 C621,245.66 621,271.77 621,294.01 " fill="none" id="Requests-to-Middlewares" style="stroke:#181818;stroke-width:1;"/><polygon fill="#181818" points="621,300.01,625,291.01,621,295.01,617,291.01,621,300.01" style="stroke:#181818;stroke-width:1;"/><text fill="#000000" font-family="sans-serif" font-size="13" lengthAdjust="spacing" textLength="186.4434" x="622" y="266.2569">Validates action permissions</text></g><!--link Middlewares to Controllers--><g id="link_Middlewares_Controllers"><path codeLine="39" d="M611.85,353.14 C605.41,368.25 595.51,386.88 582,399.78 C564.85,416.15 547.475,426.1502 526.625,434.9802 " fill="none" id="Middlewares-to-Controllers" style="stroke:#181818;stroke-width:1;"/><polygon fill="#181818" points="521.1,437.32,530.9473,437.4936,525.7041,435.3701,527.8276,430.1269,521.1,437.32" style="stroke:#181818;stroke-width:1;"/><text fill="#000000" font-family="sans-serif" font-size="13" lengthAdjust="spacing" textLength="126.2231" x="595" y="395.8469">Forwards if allowed</text></g><!--link Controllers to Collections--><g id="link_Controllers_Collections"><path codeLine="40" d="M413.01,449.61 C349.01,442.03 247.67,426.19 221,399.78 C208.81,387.71 205.1398,374.6539 203.9998,359.1439 " fill="none" id="Controllers-to-Collections" style="stroke:#181818;stroke-width:1;"/><polygon fill="#181818" points="203.56,353.16,200.2305,362.429,203.9265,358.1465,208.209,361.8426,203.56,353.16" style="stroke:#181818;stroke-width:1;"/><text fill="#000000" font-family="sans-serif" font-size="13" lengthAdjust="spacing" textLength="165.2676" x="222" y="395.8469">Accesses data if indexing</text></g><!--link Collections to Controllers--><g id="link_Collections_Controllers"><path codeLine="43" d="M257.79,336.17 C296.96,344.14 350.23,358.5 392,382.78 C412.8,394.87 428.2304,409.4375 442.1004,424.9475 " fill="none" id="Collections-to-Controllers" style="stroke:#181818;stroke-width:1;"/><polygon fill="#181818" points="446.1,429.42,443.0823,420.0449,442.767,425.6929,437.1189,425.3776,446.1,429.42" style="stroke:#181818;stroke-width:1;"/><text fill="#000000" font-family="sans-serif" font-size="13" lengthAdjust="spacing" textLength="148.1226" x="416" y="395.8469">Returns formated data</text></g><!--link Controllers to Resources--><g id="link_Controllers_Resources"><path codeLine="41" d="M472.16,482.55 C473.77,497.23 473.33,515.48 465,529.37 C454.63,546.66 442.0756,556.4055 424.4156,564.9955 " fill="none" id="Controllers-to-Resources" style="stroke:#181818;stroke-width:1;"/><polygon fill="#181818" points="419.02,567.62,428.863,567.2804,423.5163,565.4329,425.3637,560.0863,419.02,567.62" style="stroke:#181818;stroke-width:1;"/><text fill="#000000" font-family="sans-serif" font-size="13" lengthAdjust="spacing" textLength="253.3857" x="472" y="525.4369">Accesses resources for specific actions</text></g><!--link Resources to Controllers--><g id="link_Resources_Controllers"><path codeLine="44" d="M321.83,559.16 C303.85,545.85 290.09,528.93 302,512.37 C327.06,477.55 369.129,465.1149 406.939,460.2549 " fill="none" id="Resources-to-Controllers" style="stroke:#181818;stroke-width:1;"/><polygon fill="#181818" points="412.89,459.49,403.4535,456.67,407.9308,460.1274,404.4734,464.6048,412.89,459.49" style="stroke:#181818;stroke-width:1;"/><text fill="#000000" font-family="sans-serif" font-size="13" lengthAdjust="spacing" textLength="153.2197" x="303" y="525.4369">Returns formatted data</text></g><!--link Collections to Repositories--><g id="link_Collections_Repositories"><path codeLine="42" d="M173.18,353.07 C136.62,385.64 77.62,445.76 54,512.37 C28.37,584.64 103.4456,649.5903 155.9656,685.2403 " fill="none" id="Collections-to-Repositories" style="stroke:#181818;stroke-width:1;"/><polygon fill="#181818" points="160.93,688.61,155.73,680.2458,156.793,685.8019,151.237,686.8649,160.93,688.61" style="stroke:#181818;stroke-width:1;"/><text fill="#000000" font-family="sans-serif" font-size="13" lengthAdjust="spacing" textLength="84.1445" x="55" y="525.4369">Fetches data</text></g><!--link Repositories to Collections--><g id="link_Repositories_Collections"><path codeLine="46" d="M201.32,688.67 C200.79,679.33 200.26,668.68 200,658.97 C199.8,651.42 199.97,649.52 200,641.97 C200.44,526.77 199.47,497.95 202,382.78 C202.21,373.08 202.3456,368.4258 202.6956,359.0758 " fill="none" id="Repositories-to-Collections" style="stroke:#181818;stroke-width:1;"/><polygon fill="#181818" points="202.92,353.08,198.5861,361.9241,202.733,358.0765,206.5805,362.2233,202.92,353.08" style="stroke:#181818;stroke-width:1;"/><text fill="#000000" font-family="sans-serif" font-size="13" lengthAdjust="spacing" textLength="84.1382" x="201" y="525.4369">Returns data</text></g><!--link Repositories to Models--><g id="link_Repositories_Models"><path codeLine="45" d="M203,741.78 C203,764.03 203,790.15 203,812.39 " fill="none" id="Repositories-to-Models" style="stroke:#181818;stroke-width:1;"/><polygon fill="#181818" points="203,818.39,207,809.39,203,813.39,199,809.39,203,818.39" style="stroke:#181818;stroke-width:1;"/><text fill="#000000" font-family="sans-serif" font-size="13" lengthAdjust="spacing" textLength="249.2471" x="204" y="784.6269">Uses the models for executing actions</text></g><!--link Repositories to Resources--><g id="link_Repositories_Resources"><path codeLine="47" d="M262.73,704.33 C310.83,694.96 372.83,679.33 388,658.97 C398.03,645.5 395.6194,632.5781 388.0294,617.7881 " fill="none" id="Repositories-to-Resources" style="stroke:#181818;stroke-width:1;"/><polygon fill="#181818" points="385.29,612.45,385.8404,622.2835,387.5729,616.8984,392.9579,618.6309,385.29,612.45" style="stroke:#181818;stroke-width:1;"/><text fill="#000000" font-family="sans-serif" font-size="13" lengthAdjust="spacing" textLength="84.1382" x="394" y="655.0369">Returns data</text></g><!--link Resources to Repositories--><g id="link_Resources_Repositories"><path codeLine="48" d="M316.89,592.46 C283.61,598.96 241.89,612.75 217,641.97 C206.14,654.72 203.0225,667.3571 202.2825,682.5171 " fill="none" id="Resources-to-Repositories" style="stroke:#181818;stroke-width:1;"/><polygon fill="#181818" points="201.99,688.51,206.424,679.7157,202.2338,683.5159,198.4335,679.3257,201.99,688.51" style="stroke:#181818;stroke-width:1;"/><text fill="#000000" font-family="sans-serif" font-size="13" lengthAdjust="spacing" textLength="161.1479" x="218" y="655.0369">Fetches or modifies data</text></g><!--link Controllers to Responses--><g id="link_Controllers_Responses"><path codeLine="49" d="M521.14,458.49 C577.69,462.11 667.3,474.06 734,512.37 C753.76,523.72 767.1989,538.3737 778.8589,554.2537 " fill="none" id="Controllers-to-Responses" style="stroke:#181818;stroke-width:1;"/><polygon fill="#181818" points="782.41,559.09,780.3076,549.4682,779.4508,555.0598,773.8592,554.2029,782.41,559.09" style="stroke:#181818;stroke-width:1;"/><text fill="#000000" font-family="sans-serif" font-size="13" lengthAdjust="spacing" textLength="161.332" x="756" y="525.4369">return the final response</text></g><!--link Models to Database--><g id="link_Models_Database"><path codeLine="50" d="M203,871.37 C203,893.63 203,919.74 203,941.98 " fill="none" id="Models-to-Database" style="stroke:#181818;stroke-width:1;"/><polygon fill="#181818" points="203,947.98,207,938.98,203,942.98,199,938.98,203,947.98" style="stroke:#181818;stroke-width:1;"/><text fill="#000000" font-family="sans-serif" font-size="13" lengthAdjust="spacing" textLength="135.332" x="204" y="914.2269">executes the actions</text></g><!--SRC=[XLD1RiCW4BppYbNl-G27IcchtdA9rDufh1DK0YvW9LBLltSXs84Kgv8FziuEEpEBHo4_nG7XuObUq2hOUddK4MMSF3x0DsC0uzppx8mXH3iR4WJmSmVRw5EBxy8l8eeF4R27xRHI1i_2OvUwSmfDA79QQ8-Z2pewh_lKFNvD6E8QERZ9opLc6Cdf2kYcM27qBANDvh4Uo-5T6Aq4OU2lLQ0lmQgUJ6aog5aYHmuZ-fCE8QNFskPCRzBdyEeyeIg07a0OuyweMDjJMDLAEMmbXK6Miy94rLRXHTj3ZrkbLp7zN8N1UGWZIZreMKm4rauivzGh9EaOvR5ewFNNIZZiaQwgpTDE59TQmbt4_KkgMRMKwrgkTu_3Mt8NZmYdNCdsy89oYfJFpL_dYBkGv-6h8s_Q_pQthjQY8scaaeAlOkoiRxxVdBQMncHxWxR2f3Lcb2q_NoOjFp4ltaicnVul]--></g></svg>